<svg xmlns="http://www.w3.org/2000/svg" viewBox="0 0 1360 820" font-family="'Segoe UI','Microsoft YaHei',sans-serif">
  <rect width="1360" height="820" fill="#F0F2F5" rx="10"/>
  
  <!-- Header -->
  <rect x="4" y="4" width="1352" height="56" fill="#fff" rx="8"/>
  <text x="24" y="38" font-size="20" font-weight="bold" fill="#333">🛡️ OfficeGuardian</text>
  <text x="240" y="38" font-size="13" fill="#666">✅ 运行中 - 上次扫描: 14:32:15</text>
  <rect x="1100" y="16" width="120" height="28" fill="#E8F5E9" rx="4"/>
  <text x="1110" y="35" font-size="12" fill="#2E7D32">⚠️ 告警: <tspan font-weight="bold">2</tspan></text>
  <text x="1260" y="35" font-size="11" fill="#999">上次扫描: 14:32:15</text>

  <!-- Metric Cards -->
  <rect x="4" y="66" width="336" height="72" fill="#fff" rx="8"/>
  <text x="24" y="88" font-size="12" fill="#666">💾 WPS 内存</text>
  <text x="24" y="120" font-size="26" font-weight="bold" fill="#1976D2">1,842 MB</text>

  <rect x="346" y="66" width="336" height="72" fill="#fff" rx="8"/>
  <text x="366" y="88" font-size="12" fill="#666">⚡ CPU 占用</text>
  <text x="366" y="120" font-size="26" font-weight="bold" fill="#E65100">12.5%</text>

  <rect x="688" y="66" width="336" height="72" fill="#fff" rx="8"/>
  <text x="708" y="88" font-size="12" fill="#666">🧵 线程数</text>
  <text x="708" y="120" font-size="26" font-weight="bold" fill="#2E7D32">47</text>

  <rect x="1030" y="66" width="326" height="72" fill="#fff" rx="8"/>
  <text x="1050" y="88" font-size="12" fill="#666">🔧 句柄数</text>
  <text x="1050" y="120" font-size="26" font-weight="bold" fill="#6A1B9A">8,532</text>

  <!-- Memory Chart -->
  <rect x="4" y="144" width="940" height="208" fill="#fff" rx="8"/>
  <text x="20" y="170" font-size="13" font-weight="600" fill="#1976D2">📈 内存趋势 (MB)</text>
  <polyline points="40,310 80,290 130,280 180,270 230,260 280,240 330,230 380,220 430,210 480,200 530,190 580,180 630,170 680,160 730,140 780,130 830,120 880,110 920,100" fill="none" stroke="#1976D2" stroke-width="2"/>
  <polygon points="40,330 80,290 130,280 180,270 230,260 280,240 330,230 380,220 430,210 480,200 530,190 580,180 630,170 680,160 730,140 780,130 830,120 880,110 920,100 920,330" fill="rgba(25,118,210,0.06)"/>
  <text x="10" y="130" font-size="10" fill="#999">2000</text>
  <text x="10" y="230" font-size="10" fill="#999">1000</text>
  <text x="10" y="320" font-size="10" fill="#999">0</text>
  <text x="40" y="340" font-size="9" fill="#bbb">10:00</text>
  <text x="400" y="340" font-size="9" fill="#bbb">12:00</text>
  <text x="780" y="340" font-size="9" fill="#bbb">14:00</text>
  <text x="20" y="345" font-size="10" fill="#888">当前: 1,842 MB | 最高: 1,956 MB | 最低: 420 MB</text>

  <!-- CPU Chart -->
  <rect x="4" y="358" width="940" height="208" fill="#fff" rx="8"/>
  <text x="20" y="384" font-size="13" font-weight="600" fill="#E65100">📈 CPU 趋势 (%)</text>
  <polyline points="40,310 80,270 130,280 180,240 230,250 280,220 330,230 380,200 430,210 480,190 530,200 580,170 630,180 680,160 730,170 780,140 830,150 880,120 920,130" fill="none" stroke="#E65100" stroke-width="2"/>
  <polygon points="40,330 80,270 130,280 180,240 230,250 280,220 330,230 380,200 430,210 480,190 530,200 580,170 630,180 680,160 730,170 780,140 830,150 880,120 920,130 920,330" fill="rgba(230,81,0,0.06)"/>
  <text x="10" y="140" font-size="10" fill="#999">50%</text>
  <text x="10" y="235" font-size="10" fill="#999">25%</text>
  <text x="10" y="325" font-size="10" fill="#999">0%</text>
  <text x="40" y="340" font-size="9" fill="#bbb">10:00</text>
  <text x="400" y="340" font-size="9" fill="#bbb">12:00</text>
  <text x="780" y="340" font-size="9" fill="#bbb">14:00</text>
  <text x="20" y="345" font-size="10" fill="#888">当前: 12.5% | 峰值: 42.8% | 平均: 18.3%</text>

  <!-- Thread Chart -->
  <rect x="4" y="572" width="940" height="208" fill="#fff" rx="8"/>
  <text x="20" y="598" font-size="13" font-weight="600" fill="#2E7D32">📈 线程趋势</text>
  <polyline points="40,310 80,295 130,290 180,285 230,280 280,275 330,268 380,262 430,255 480,248 530,242 580,235 630,228 680,220 730,210 780,200 830,190 880,180 920,175" fill="none" stroke="#2E7D32" stroke-width="2"/>
  <polygon points="40,330 80,295 130,290 180,285 230,280 280,275 330,268 380,262 430,255 480,248 530,242 580,235 630,228 680,220 730,210 780,200 830,190 880,180 920,175 920,330" fill="rgba(46,125,50,0.06)"/>
  <text x="10" y="140" font-size="10" fill="#999">60</text>
  <text x="10" y="238" font-size="10" fill="#999">30</text>
  <text x="10" y="325" font-size="10" fill="#999">0</text>
  <text x="40" y="340" font-size="9" fill="#bbb">10:00</text>
  <text x="400" y="340" font-size="9" fill="#bbb">12:00</text>
  <text x="780" y="340" font-size="9" fill="#bbb">14:00</text>
  <text x="20" y="345" font-size="10" fill="#888">当前: 47 | 最高: 53 | 最低: 32</text>

  <!-- Sidebar -->
  <rect x="952" y="144" width="404" height="636" fill="#fff" rx="8"/>
  <text x="970" y="172" font-size="15" font-weight="bold" fill="#333">📋 操作面板</text>

  <!-- Report Panel -->
  <rect x="968" y="188" width="372" height="100" fill="#F5F5F5" rx="6"/>
  <text x="980" y="212" font-size="12" font-weight="600" fill="#333">📊 每日报告</text>
  <rect x="980" y="224" width="348" height="34" fill="#1976D2" rx="4"/>
  <text x="1110" y="246" font-size="13" fill="#fff" text-anchor="middle">📄 生成今日报告</text>
  <text x="980" y="278" font-size="10" fill="#666">报告已生成: Reports/DailyReport_2026-06-16.html</text>

  <!-- AI Panel -->
  <rect x="968" y="296" width="372" height="120" fill="#FFF3E0" rx="6"/>
  <text x="980" y="320" font-size="12" font-weight="600" fill="#333">🤖 AI 分析</text>
  <rect x="980" y="332" width="348" height="34" fill="#E65100" rx="4"/>
  <text x="1110" y="354" font-size="13" fill="#fff" text-anchor="middle">🔍 Analyze Report</text>
  <text x="980" y="384" font-size="10" fill="#BF360C">请分析以下WPS监控数据...</text>
  <text x="980" y="400" font-size="10" fill="#2E7D32">✅ 已复制到剪贴板，可直接粘贴到 ChatGPT</text>

  <!-- Warnings Panel -->
  <rect x="968" y="424" width="372" height="340" fill="#FFEBEE" rx="6"/>
  <text x="980" y="448" font-size="12" font-weight="600" fill="#C62828">⚠️ 最近告警</text>
  
  <rect x="980" y="460" width="348" height="68" fill="#fff" rx="4"/>
  <text x="992" y="480" font-size="12" font-weight="bold" fill="#C62828">MemoryWarning</text>
  <text x="992" y="496" font-size="10" fill="#666">14:30:15</text>
  <text x="992" y="514" font-size="10" fill="#333">内存持续增长: 420MB → 1,842MB</text>

  <rect x="980" y="536" width="348" height="68" fill="#fff" rx="4"/>
  <text x="992" y="556" font-size="12" font-weight="bold" fill="#C62828">HandleLeakWarning</text>
  <text x="992" y="572" font-size="10" fill="#666">14:29:10</text>
  <text x="992" y="590" font-size="10" fill="#333">句柄持续增长: 1,200 → 8,532</text>
</svg>
